<svg id="Layer_1" enable-background="new 0 0 512 512" height="512" viewBox="0 0 512 512" width="512" xmlns="http://www.w3.org/2000/svg"><g><g><path d="m116.438 373.161c18.794-39.072 58.751-66.042 105.009-66.042h69.106c46.257 0 86.215 26.97 105.009 66.042h.001c11.449-222.136-4.943-365.161-139.563-365.161s-151.012 143.025-139.562 365.161z" fill="#2d4456"/><path d="m294.098 289.12h-76.196c-42.251 0-79.72 18.519-103.121 47.082.453 12.063 1.007 24.377 1.656 36.959h.001c18.794-39.072 58.751-66.042 105.009-66.042h69.106c46.257 0 86.215 26.97 105.009 66.042h.001c.648-12.582 1.202-24.896 1.655-36.959-23.4-28.564-60.869-47.082-103.12-47.082z" fill="#253847"/><path d="m350.521 145.015-19.926-43.649-13.487 38.839c-2.095 6.034-7.782 10.08-14.17 10.08h-93.876c-6.388 0-12.075-4.045-14.17-10.08l-13.487-38.839-19.926 40.224v71.01c0 52.202 42.318 94.52 94.52 94.52 52.202 0 94.521-42.318 94.521-94.521v-67.584z" fill="#ffe0cc"/><path d="m256 289.12c-52.203 0-94.521-42.318-94.521-94.52v18c0 52.202 42.318 94.52 94.52 94.52 52.202 0 94.521-42.318 94.521-94.521v-18c.001 52.202-42.317 94.521-94.52 94.521z" fill="#ffceb3"/><path d="m407.012 504h-302.024v-80.421c0-64.319 52.141-116.459 116.459-116.459h69.106c64.319 0 116.459 52.141 116.459 116.459z" fill="#86dcff"/><path d="m104.988 486h302.025v18h-302.025z" fill="#56caed"/><path d="m256 414.56 86.533-95.216c-15.648-7.818-33.298-12.225-51.98-12.225h-69.106c-18.682 0-36.332 4.406-51.98 12.224z" fill="#e4eef9"/><path d="m181.213 314.269c-4.024 1.482-7.945 3.176-11.746 5.075l86.533 95.216 86.533-95.216c-3.801-1.899-7.723-3.593-11.746-5.075l-71.087 78.219c-1.984 2.183-5.417 2.183-7.4 0z" fill="#d5e0f2"/><path d="m273.52 340.974h-35.04l-7.643-33.854h50.325z" fill="#e6485d"/><path d="m256 414.56s17.546-19.307 25.772-28.359l-8.252-45.228h-35.04l-8.252 45.228z" fill="#ff5876"/><path d="m281.772 386.201-2.735-14.99-19.337 21.277c-1.984 2.183-5.417 2.183-7.4 0l-19.337-21.277-2.735 14.99 25.772 28.359s17.546-19.307 25.772-28.359z" fill="#e6485d"/><path d="m169.467 319.344c-9.587 4.79-18.423 10.857-26.278 17.988l101.711 111.916c5.952 6.549 16.25 6.549 22.201 0l101.711-111.916c-7.855-7.132-16.692-13.198-26.278-17.988l-86.534 95.216z" fill="#ffcf4d"/><path d="m267.101 431.249c-5.952 6.549-16.25 6.549-22.201 0l-92.322-101.586c-3.263 2.395-6.398 4.954-9.389 7.669l101.711 111.916c5.952 6.549 16.25 6.549 22.201 0l101.711-111.916c-2.991-2.716-6.126-5.274-9.389-7.669z" fill="#ffb629"/></g><g><g><path d="m403.432 371.98c4.591-90.11 3.812-153.013-2.522-203.744-7.63-61.111-23.923-104.066-49.809-131.321-23.592-24.84-54.701-36.915-95.101-36.915-25.305 0-47.531 4.977-66.061 14.793-3.668 1.943-5.066 6.491-3.123 10.158 1.943 3.668 6.493 5.066 10.158 3.123 16.34-8.656 36.199-13.045 59.025-13.045 36.059 0 63.602 10.545 84.204 32.236 23.596 24.843 38.575 65.022 45.793 122.833 5.686 45.547 6.801 101.334 3.479 178.709-19.501-25.606-48.703-43.438-82.078-47.965 30.371-17.741 50.823-50.689 50.823-88.328v-67.715c0-1.077-.232-2.141-.679-3.121l-19.965-43.735c-2.545-6.069-11.984-5.629-13.935.655l-13.513 38.915c-1.049 3.021-3.902 5.05-7.099 5.05h-94.06c-3.197 0-6.05-2.029-7.099-5.05l-13.513-38.915c-1.917-6.178-11.153-6.751-13.833-.87l-19.964 40.302c-.514 1.037-.781 2.179-.781 3.336v71.148c0 37.639 20.452 70.587 50.823 88.328-33.375 4.527-62.578 22.359-82.078 47.966-3.388-78.985-2.155-135.682 3.857-181.661 7.62-58.282 23.345-98.378 48.073-122.58 2.966-2.903 3.017-7.66.114-10.627-2.903-2.966-7.66-3.017-10.627-.114-27.228 26.649-44.389 69.621-52.463 131.372-6.688 51.147-7.587 114.987-2.91 206.781-7.306 15.809-11.391 33.399-11.391 51.928v15.612c0 4.15 3.364 7.515 7.515 7.515 4.15 0 7.515-3.365 7.515-7.515v-15.612c0-29.302 11.607-55.943 30.461-75.572l96.649 106.347c8.48 9.748 24.888 9.748 33.367 0l31.587-34.757c2.791-3.071 2.564-7.824-.508-10.615-3.07-2.792-7.823-2.565-10.616.507l-31.587 34.757c-2.821 3.26-8.3 3.259-11.122 0l-96.644-106.344c4.375-3.459 9.022-6.587 13.9-9.354l82.745 91.048c2.826 3.251 8.296 3.251 11.122 0l82.746-91.047c4.878 2.766 9.524 5.895 13.899 9.353l-44.832 49.33c-2.791 3.071-2.564 7.824.508 10.615 3.063 2.785 7.816 2.571 10.615-.507l44.835-49.333c18.854 19.63 30.461 46.27 30.461 75.572v73.064h-44.746v-58.638c0-4.15-3.364-7.515-7.515-7.515s-7.515 3.365-7.515 7.515v58.638h-168.036v-58.638c0-4.15-3.365-7.515-7.515-7.515s-7.515 3.365-7.515 7.515v58.638h-44.745v-27.393c0-4.15-3.365-7.515-7.515-7.515s-7.515 3.365-7.515 7.515v34.908c0 4.15 3.364 7.515 7.515 7.515h302.616c4.151 0 7.515-3.365 7.515-7.515v-80.578c.001-18.529-4.084-36.119-11.39-51.928zm-135.885-38.355h-23.094l-4.265-18.891h31.623zm-98.739-121.111v-69.389l11.229-22.669 7.635 21.987c3.147 9.061 11.706 15.149 21.297 15.149h94.06c9.591 0 18.15-6.088 21.296-15.149l7.363-21.205 11.501 25.194v66.081c0 48.077-39.113 87.191-87.191 87.191-48.076.001-87.19-39.113-87.19-87.19zm52.571 102.22h3.402l5.997 26.564-5.264 28.853-43.639-48.017c12.256-4.774 25.579-7.4 39.504-7.4zm34.621 88.963-17.763-19.545 6.476-35.497h22.573l6.477 35.496zm30.486-33.546-5.265-28.853 5.997-26.564h3.402c13.925 0 27.248 2.625 39.505 7.399z"/><path d="m210.199 176.049c-4.142 0-7.5 3.358-7.5 7.5v21.19c0 4.142 3.358 7.5 7.5 7.5s7.5-3.358 7.5-7.5v-21.19c0-4.142-3.358-7.5-7.5-7.5z"/><path d="m301.801 212.24c4.143 0 7.5-3.358 7.5-7.5v-21.19c0-4.142-3.357-7.5-7.5-7.5s-7.5 3.358-7.5 7.5v21.19c0 4.142 3.357 7.5 7.5 7.5z"/><path d="m256 260.779c26.662 0 34.722-18.737 35.074-19.588 0-.001.002-.004.003-.006 2.124-4.773-1.652-10.532-6.913-10.414-3.125 0-5.802 1.913-6.929 4.631-.379.803-5.248 10.377-21.235 10.377-15.983 0-20.853-9.57-21.235-10.377-1.127-2.718-3.803-4.631-6.929-4.631-5.261-.118-9.036 5.642-6.913 10.414.001.001.002.004.002.006.352.851 8.413 19.588 35.075 19.588z"/></g></g></g></svg>